<?xml version="1.0" encoding="utf-8"?>
<!-- Generator: Adobe Illustrator 19.0.0, SVG Export Plug-In . SVG Version: 6.00 Build 0)  -->
<svg version="1.1" id="Layer_1" xmlns="http://www.w3.org/2000/svg" xmlns:xlink="http://www.w3.org/1999/xlink" x="0px" y="0px"
	 viewBox="0 0 1395.2 1482" style="enable-background:new 0 0 1395.2 1482;" xml:space="preserve">
<style type="text/css">
	.st0{fill:#333333;}
	.st1{fill:#0DB14B;}
	.st2{fill:#CCCCCC;}
	.st3{fill:none;stroke:#ABABAB;stroke-miterlimit:10;stroke-dasharray:2.0021,2.0021;}
	.st4{fill:none;stroke:#ABABAB;stroke-miterlimit:10;stroke-dasharray:2.0003,2.0003;}
	.st5{fill:none;stroke:#ABABAB;stroke-miterlimit:10;stroke-dasharray:1.9945,1.9945;}
	.st6{fill:none;stroke:#ABABAB;stroke-miterlimit:10;stroke-dasharray:1.9987,1.9987;}
	.st7{fill:none;stroke:#ABABAB;stroke-miterlimit:10;stroke-dasharray:2.003,2.003;}
	.st8{fill:#ABABAB;}
	.st9{fill:none;stroke:#ABABAB;stroke-miterlimit:10;}
	.st10{fill:none;stroke:#ABABAB;stroke-miterlimit:10;stroke-dasharray:1.9889,1.9889;}
	.st11{fill:none;stroke:#ABABAB;stroke-miterlimit:10;stroke-dasharray:1.9873,1.9873;}
	.st12{fill:none;stroke:#ABABAB;stroke-miterlimit:10;stroke-dasharray:2.0017,2.0017;}
	.st13{fill:none;stroke:#ABABAB;stroke-miterlimit:10;stroke-dasharray:2.0181,2.0181;}
	.st14{fill:none;stroke:#ABABAB;stroke-miterlimit:10;stroke-dasharray:2.0191,2.0191;}
	.st15{fill:none;stroke:#ABABAB;stroke-miterlimit:10;stroke-dasharray:2.0077,2.0077;}
	.st16{fill:none;stroke:#ABABAB;stroke-miterlimit:10;stroke-dasharray:2.0086,2.0086;}
	.st17{fill:none;stroke:#ABABAB;stroke-miterlimit:10;stroke-dasharray:2.0084,2.0084;}
	.st18{fill:none;stroke:#ABABAB;stroke-miterlimit:10;stroke-dasharray:1.9922,1.9922;}
	.st19{fill:none;stroke:#ABABAB;stroke-miterlimit:10;stroke-dasharray:1.9929,1.9929;}
	.st20{fill:none;stroke:#ABABAB;stroke-miterlimit:10;stroke-dasharray:2.0102,2.0102;}
	.st21{fill:none;stroke:#ABABAB;stroke-miterlimit:10;stroke-dasharray:2.0097,2.0097;}
	.st22{fill:none;stroke:#ABABAB;stroke-miterlimit:10;stroke-dasharray:1.996,1.996;}
	.st23{fill:none;stroke:#ABABAB;stroke-miterlimit:10;stroke-dasharray:1.9957,1.9957;}
	.st24{fill:none;stroke:#ABABAB;stroke-miterlimit:10;stroke-dasharray:1.9796,1.9796;}
	.st25{fill:none;stroke:#ABABAB;stroke-miterlimit:10;stroke-dasharray:1.9814,1.9814;}
	.st26{fill:none;stroke:#ABABAB;stroke-miterlimit:10;stroke-dasharray:2.0073,2.0073;}
	.st27{fill:none;stroke:#ABABAB;stroke-miterlimit:10;stroke-dasharray:2.0076,2.0076;}
	.st28{fill:none;stroke:#ABABAB;stroke-miterlimit:10;stroke-dasharray:2.0011,2.0011;}
	.st29{fill:none;stroke:#ABABAB;stroke-miterlimit:10;stroke-dasharray:2.0016,2.0016;}
	.st30{fill:none;stroke:#ABABAB;stroke-miterlimit:10;stroke-dasharray:1.9867,1.9867;}
	.st31{fill:none;stroke:#ABABAB;stroke-miterlimit:10;stroke-dasharray:1.9801,1.9801;}
	.st32{fill:none;stroke:#ABABAB;stroke-miterlimit:10;stroke-dasharray:2.0194,2.0194;}
	.st33{fill:none;stroke:#ABABAB;stroke-miterlimit:10;stroke-dasharray:1.9905,1.9905;}
	.st34{fill:none;stroke:#ABABAB;stroke-miterlimit:10;stroke-dasharray:1.9909,1.9909;}
	.st35{fill:none;stroke:#ABABAB;stroke-miterlimit:10;stroke-dasharray:2,2;}
	.st36{font-family:'ArialMT';}
	.st37{font-size:13.6417px;}
	.st38{fill:none;}
	.st39{fill:#EEEEEE;}
	.st40{font-family:'Arial-BoldMT';}
	.st41{font-size:34.5962px;}
</style>
<g id="XMLID_353_">
	<g id="XMLID_4_">
		<path id="XMLID_3_" class="st0" d="M633.4,225.4c0-28.2,19.9-51,48.3-51c27.8,0,46.8,21.8,46.8,53.7v5.6h-69.4
			c1.5,12.3,11,22.6,26.9,22.6c7.9,0,19-3.6,24.9-9.7l10.8,16.5c-9.3,8.9-24,13.5-38.5,13.5C654.9,276.7,633.4,256.7,633.4,225.4z
			 M681.7,194.8c-15.3,0-21.9,11.9-23,21.6h46C704.2,207.1,698,194.8,681.7,194.8z"/>
		<path id="XMLID_53_" class="st0" d="M740.4,274.3V139.7H765v134.6H740.4z"/>
		<path id="XMLID_54_" class="st0" d="M839.5,274.3v-10.1c-6.4,7.9-17.4,12.5-29.6,12.5c-14.9,0-32.5-10.5-32.5-32.3
			c0-22.8,17.6-31.5,32.5-31.5c12.4,0,23.4,4.2,29.6,11.9v-13.1c0-9.9-8.1-16.3-20.5-16.3c-10.1,0-19.3,3.8-27.3,11.5l-9.3-17.1
			c11.4-10.5,26.1-15.3,40.8-15.3c21.3,0,40.8,8.9,40.8,36.9v62.9H839.5z M839.5,250.9v-12.1c-4.1-5.6-11.8-8.5-19.7-8.5
			c-9.7,0-17.6,5.2-17.6,14.7c0,9.1,7.9,14.3,17.6,14.3C827.7,259.3,835.4,256.5,839.5,250.9z"/>
		<path id="XMLID_55_" class="st0" d="M875.9,261.5l10.6-18c6.8,6.7,20.7,13.3,32.3,13.3c10.6,0,15.7-4.4,15.7-10.5
			c0-16.1-55.5-3-55.5-41.4c0-16.3,13.7-30.7,38.3-30.7c15.9,0,28.4,5.6,37.7,13.3l-9.9,17.5c-5.6-6.3-16.2-11.3-27.7-11.3
			c-8.9,0-14.7,4.2-14.7,9.7c0,14.5,55.3,2.4,55.3,41.8c0,17.8-14.5,31.3-40.4,31.3C901.4,276.7,885.7,271,875.9,261.5z"/>
		<path id="XMLID_56_" class="st0" d="M982.6,250v-50.8h-15.5v-22.4h15.5v-26.6h24.8v26.6h19v22.4h-19v44c0,6.1,3.1,10.7,8.5,10.7
			c3.7,0,7.2-1.4,8.5-2.8l5.2,19.4c-3.7,3.4-10.2,6.3-20.5,6.3C991.8,276.7,982.6,267.4,982.6,250z"/>
		<path id="XMLID_20_" class="st0" d="M1045,151c0-8.5,6.8-15.1,14.7-15.1c8.1,0,14.7,6.7,14.7,15.1c0,8.5-6.6,15.3-14.7,15.3
			C1051.8,166.3,1045,159.5,1045,151z"/>
		<rect id="XMLID_19_" x="1047.5" y="176.8" class="st0" width="24.6" height="97.4"/>
		<path id="XMLID_58_" class="st0" d="M1087.5,225.4c0-29.9,20.7-51,49.5-51c19.1,0,30.7,8.7,36.9,17.6l-16.1,15.7
			c-4.4-6.9-11.2-10.5-19.7-10.5c-14.9,0-25.3,11.3-25.3,28.2s10.4,28.4,25.3,28.4c8.5,0,15.3-4,19.7-10.5l16.1,15.5
			c-6.2,9.1-17.8,17.8-36.9,17.8C1108.2,276.7,1087.5,255.5,1087.5,225.4z"/>
	</g>
	<g id="XMLID_14_">
		<g id="XMLID_11_">
			<path id="XMLID_13_" class="st0" d="M441.7,177.8c1-1.3,1.8-2.6,2.4-4L441.7,177.8z"/>
			<path id="XMLID_34_" class="st0" d="M470.8,163C470.8,163,470.8,163,470.8,163C470.8,163,470.8,163,470.8,163z"/>
			<path id="XMLID_36_" class="st0" d="M561.2,162.2c-6.8,0-13.2,2.9-17.9,7.7c-4,4.1-7.3,8-12.9,10.2c-6.6,2.6-14.1,2.5-20.7-0.2
				c-5.9-2.5-9.8-7.4-15.1-10.8c-6.2-3.9-13.3-6-20.6-6.1c-4.7-0.1-8.9-0.3-12.9-3.1c-5.1-3.5-8-9.5-7.7-15.7
				c0.3-6.1,3.8-10.7,2.8-17.1c-2-12.9-16.5-20.5-28.2-14.7c-11.8,5.8-14.7,22-5.5,31.4c7.1,7.3,18.3,5.9,22.2,17.1
				c2.1,6.1,0.5,11.9-3.1,17c-4,5.7-7.1,11.4-8.4,18.4c-2.1,11.5,3.2,22.8-6.3,32.3c-4.3,4.3-10.2,6.6-16.2,6.4
				c-6.5-0.2-12.2-2-18.8-0.3c-26.1,6.7-31.9,42.4-9.5,57.2c10.5,6.9,24.4,6.9,34.8,0c9.9-6.5,14.2-16.9,14.2-28.4
				c0-12.6,9.8-23.2,22.8-22.6c5.8,0.2,11.2,2.9,17,3.2c6.7,0.3,13.5-1,19.5-3.9c5.9-2.8,11-7.1,14.9-12.3c3.3-4.5,5-9.9,8.7-14.1
				c9.1-10.3,23-11.1,34.6-5.1c11.2,5.7,24.9,3.2,32.4-7.3c7.2-10.2,5.5-24.5-3.8-32.8C573.2,164.4,567.3,162.2,561.2,162.2z"/>
		</g>
		<circle id="XMLID_12_" class="st1" cx="510.8" cy="129.8" r="19.7"/>
		<circle id="XMLID_39_" class="st2" cx="387.2" cy="187" r="24.6"/>
		<circle id="XMLID_41_" class="st2" cx="548.2" cy="266.1" r="31.8"/>
		<circle id="XMLID_45_" class="st1" cx="473.2" cy="304.5" r="34.8"/>
	</g>
</g>
<g id="XMLID_352_">
	<g id="XMLID_89_">
		<g id="XMLID_91_">
			<path id="XMLID_132_" class="st0" d="M628,660.2c0-27.7,19.5-50,47.4-50c27.3,0,45.9,21.4,45.9,52.6v5.5h-68.1
				c1.5,12.1,10.8,22.1,26.3,22.1c7.8,0,18.6-3.6,24.5-9.5l10.6,16.2c-9.1,8.7-23.5,13.2-37.7,13.2C649.1,710.5,628,690.9,628,660.2
				z M675.4,630.2c-15,0-21.4,11.7-22.6,21.2H698C697.4,642.2,691.4,630.2,675.4,630.2z"/>
			<path id="XMLID_130_" class="st0" d="M732.9,708.1V576.2H757v131.9H732.9z"/>
			<path id="XMLID_127_" class="st0" d="M830.1,708.1v-9.9c-6.3,7.7-17.1,12.3-29,12.3c-14.6,0-31.8-10.3-31.8-31.6
				c0-22.3,17.2-30.8,31.8-30.8c12.1,0,22.9,4.2,29,11.7v-12.9c0-9.7-8-16-20.1-16c-9.9,0-19,3.8-26.7,11.3l-9.1-16.8
				c11.2-10.3,25.6-15,40-15c20.9,0,40,8.7,40,36.2v61.7H830.1z M830.1,685.1v-11.9c-4-5.5-11.6-8.3-19.3-8.3
				c-9.5,0-17.2,5.1-17.2,14.4c0,8.9,7.8,14,17.2,14C818.5,693.5,826.1,690.7,830.1,685.1z"/>
			<path id="XMLID_112_" class="st0" d="M865.7,695.6l10.4-17.6c6.6,6.5,20.3,13.1,31.7,13.1c10.4,0,15.4-4.3,15.4-10.3
				c0-15.8-54.4-3-54.4-40.5c0-16,13.5-30.1,37.5-30.1c15.5,0,27.9,5.5,37,13.1l-9.7,17.2c-5.5-6.1-15.9-11.1-27.1-11.1
				c-8.7,0-14.4,4.2-14.4,9.5c0,14.2,54.2,2.4,54.2,40.9c0,17.4-14.2,30.6-39.6,30.6C890.7,710.5,875.4,704.9,865.7,695.6z"/>
			<path id="XMLID_96_" class="st0" d="M970.3,684.4v-49.8h-15.2v-21.9h15.2v-26.1h24.3v26.1h18.6v21.9h-18.6v43.1
				c0,5.9,3,10.5,8.3,10.5c3.6,0,7-1.4,8.3-2.8l5.1,19c-3.6,3.4-10,6.1-20.1,6.1C979.4,710.5,970.3,701.4,970.3,684.4z"/>
			<path id="XMLID_95_" class="st1" d="M1031.5,587.3c0-8.3,6.6-14.8,14.4-14.8c8,0,14.4,6.5,14.4,14.8c0,8.3-6.4,15-14.4,15
				C1038.1,602.3,1031.5,595.6,1031.5,587.3z"/>
			<rect id="XMLID_94_" x="1034" y="612.6" class="st0" width="24.1" height="95.5"/>
			<path id="XMLID_92_" class="st0" d="M1073.2,660.2c0-29.3,20.3-50,48.5-50c18.8,0,30.1,8.5,36.2,17.2l-15.7,15.4
				c-4.4-6.7-11-10.3-19.3-10.3c-14.6,0-24.8,11.1-24.8,27.7c0,16.6,10.2,27.9,24.8,27.9c8.3,0,15-4,19.3-10.3l15.7,15.2
				c-6.1,8.9-17.4,17.4-36.2,17.4C1093.4,710.5,1073.2,689.7,1073.2,660.2z"/>
		</g>
		<g id="XMLID_60_">
			<path id="XMLID_65_" class="st2" d="M637.5,747.4v-23.6h8.8c7.4,0,12.3,4.9,12.3,11.8c0,6.9-5,11.8-12.3,11.8H637.5z
				 M654.4,735.6c0-4.6-2.8-8.2-8.1-8.2h-4.6v16.3h4.6C651.4,743.7,654.4,740.1,654.4,735.6z"/>
			<path id="XMLID_80_" class="st2" d="M662.5,747.4v-19.4h14.2v3.4h-10.3v4.5h10.1v3.4h-10.1v4.9h10.3v3.4H662.5z"/>
			<path id="XMLID_82_" class="st2" d="M679.6,737.7c0-6,4.5-10.1,10.5-10.1c3.9,0,6.6,2,8.1,4.6l-3.2,1.6c-1-1.6-2.8-2.8-4.9-2.8
				c-3.7,0-6.6,2.8-6.6,6.8c0,3.9,2.8,6.8,6.6,6.8c2.1,0,4-1.1,4.9-2.7l3.2,1.6c-1.6,2.6-4.2,4.6-8.1,4.6
				C684.2,747.8,679.6,743.6,679.6,737.7z"/>
			<path id="XMLID_111_" class="st2" d="M701.4,747.4v-19.4h14.2v3.4h-10.3v4.5h10.1v3.4h-10.1v4.9h10.3v3.4H701.4z"/>
			<path id="XMLID_268_" class="st2" d="M733.5,747.4l-10.1-13.4v13.4h-3.9v-19.4h4.1l9.9,13.1v-13.1h3.9v19.4H733.5z"/>
			<path id="XMLID_272_" class="st2" d="M746.4,747.4v-16.1h-5.7v-3.4H756v3.4h-5.8v16.1H746.4z"/>
			<path id="XMLID_289_" class="st2" d="M770.8,747.4l-4.4-7h-3.4v7h-3.9v-19.4h9.2c4.2,0,6.6,2.8,6.6,6.2c0,3.5-2.2,5.5-4.8,5.9
				l5,7.4H770.8z M771.1,734.1c0-1.7-1.2-2.8-3.1-2.8h-4.9v5.7h4.9C770,737,771.1,735.8,771.1,734.1z"/>
			<path id="XMLID_292_" class="st2" d="M789.3,727.9l8,19.4H793l-1.5-3.6h-9.1l-1.4,3.6h-4.3l8-19.4H789.3z M787,731.9l-3.4,8.5
				h6.9L787,731.9z"/>
			<path id="XMLID_310_" class="st2" d="M799.8,747.4v-19.4h3.9V744h8.9v3.4H799.8z"/>
			<path id="XMLID_312_" class="st2" d="M816.2,747.4v-19.4h3.9v19.4H816.2z"/>
			<path id="XMLID_314_" class="st2" d="M823.7,747.4v-2.8l10.3-13.2h-10.3v-3.4h15.5v2.8L829,744h10.5v3.4H823.7z"/>
			<path id="XMLID_316_" class="st2" d="M843.2,747.4v-19.4h14.2v3.4h-10.3v4.5h10.1v3.4h-10.1v4.9h10.3v3.4H843.2z"/>
			<path id="XMLID_318_" class="st2" d="M861.4,747.4v-19.4h7.7c6.4,0,10.5,4,10.5,9.8c0,5.7-4.1,9.7-10.5,9.7H861.4z M875.7,737.7
				c0-3.5-2.1-6.4-6.5-6.4h-3.9V744h3.8C873.4,744,875.7,741.2,875.7,737.7z"/>
			<path id="XMLID_321_" class="st2" d="M891,744.1l2.3-3.2c1.6,1.7,4.2,3.3,7.5,3.3c3.4,0,4.7-1.7,4.7-3.2
				c0-4.9-13.8-1.9-13.8-10.6c0-3.9,3.4-6.9,8.6-6.9c3.7,0,6.6,1.2,8.8,3.3l-2.4,3.1c-1.8-1.8-4.3-2.7-6.8-2.7c-2.4,0-4,1.2-4,2.9
				c0,4.4,13.7,1.7,13.7,10.5c0,3.9-2.8,7.3-9.1,7.3C896.3,747.8,893.1,746.3,891,744.1z"/>
			<path id="XMLID_323_" class="st2" d="M913.5,739.8v-11.8h3.9v11.5c0,3,1.7,4.9,4.9,4.9c3.2,0,4.9-1.9,4.9-4.9v-11.5h3.9v11.8
				c0,4.8-2.9,8.1-8.8,8.1C916.4,747.8,913.5,744.6,913.5,739.8z"/>
			<path id="XMLID_325_" class="st2" d="M936,747.4v-19.4h9.2c4.3,0,6.6,2.9,6.6,6.2c0,3.4-2.2,6.2-6.6,6.2h-5.3v7H936z
				 M947.8,734.1c0-1.6-1.1-2.8-3.1-2.8h-4.9v5.7h4.9C946.8,737,947.8,735.8,947.8,734.1z"/>
			<path id="XMLID_328_" class="st2" d="M955,747.4v-19.4h14.2v3.4h-10.3v4.5H969v3.4h-10.1v4.9h10.3v3.4H955z"/>
			<path id="XMLID_330_" class="st2" d="M984.9,747.4l-4.4-7h-3.4v7h-3.9v-19.4h9.2c4.2,0,6.6,2.8,6.6,6.2c0,3.5-2.2,5.5-4.8,5.9
				l5,7.4H984.9z M985.2,734.1c0-1.7-1.2-2.8-3.1-2.8h-4.9v5.7h4.9C984.1,737,985.2,735.8,985.2,734.1z"/>
			<path id="XMLID_333_" class="st2" d="M992,737.7c0-6,4.5-10.1,10.5-10.1c3.9,0,6.6,2,8.1,4.6l-3.2,1.6c-1-1.6-2.8-2.8-4.9-2.8
				c-3.7,0-6.6,2.8-6.6,6.8c0,3.9,2.8,6.8,6.6,6.8c2.1,0,4-1.1,4.9-2.7l3.2,1.6c-1.6,2.6-4.2,4.6-8.1,4.6
				C996.6,747.8,992,743.6,992,737.7z"/>
			<path id="XMLID_335_" class="st2" d="M1012.7,737.7c0-5.8,4.1-10.1,10.3-10.1c6.1,0,10.3,4.3,10.3,10.1c0,5.8-4.2,10.1-10.3,10.1
				C1016.8,747.8,1012.7,743.5,1012.7,737.7z M1029.3,737.7c0-3.9-2.5-6.8-6.3-6.8c-3.9,0-6.4,2.9-6.4,6.8c0,3.8,2.5,6.8,6.4,6.8
				C1026.8,744.4,1029.3,741.5,1029.3,737.7z"/>
			<path id="XMLID_338_" class="st2" d="M1054.5,747.4v-13.5l-5.9,13.5h-1.7l-6-13.5v13.5h-3.9v-19.4h5.2l5.5,12.6l5.5-12.6h5.2
				v19.4H1054.5z"/>
			<path id="XMLID_340_" class="st2" d="M1063.2,747.4v-19.4h9.2c4.3,0,6.6,2.9,6.6,6.2c0,3.4-2.2,6.2-6.6,6.2h-5.3v7H1063.2z
				 M1075.1,734.1c0-1.6-1.1-2.8-3.1-2.8h-4.9v5.7h4.9C1074,737,1075.1,735.8,1075.1,734.1z"/>
			<path id="XMLID_343_" class="st2" d="M1082.3,739.8v-11.8h3.9v11.5c0,3,1.7,4.9,4.9,4.9c3.2,0,4.9-1.9,4.9-4.9v-11.5h3.9v11.8
				c0,4.8-2.9,8.1-8.8,8.1C1085.2,747.8,1082.3,744.6,1082.3,739.8z"/>
			<path id="XMLID_345_" class="st2" d="M1108.9,747.4v-16.1h-5.7v-3.4h15.3v3.4h-5.8v16.1H1108.9z"/>
			<path id="XMLID_347_" class="st2" d="M1121.7,747.4v-19.4h14.2v3.4h-10.3v4.5h10.1v3.4h-10.1v4.9h10.3v3.4H1121.7z"/>
			<path id="XMLID_349_" class="st2" d="M1151.5,747.4l-4.4-7h-3.4v7h-3.9v-19.4h9.2c4.2,0,6.6,2.8,6.6,6.2c0,3.5-2.2,5.5-4.8,5.9
				l5,7.4H1151.5z M1151.9,734.1c0-1.7-1.2-2.8-3.1-2.8h-4.9v5.7h4.9C1150.8,737,1151.9,735.8,1151.9,734.1z"/>
		</g>
	</g>
	<g id="XMLID_5_">
		<g id="XMLID_30_">
			<path id="XMLID_73_" class="st0" d="M440.1,619.8c1-1.2,1.8-2.5,2.4-3.9L440.1,619.8z"/>
			<path id="XMLID_35_" class="st0" d="M468.7,605.3C468.7,605.3,468.7,605.3,468.7,605.3C468.7,605.3,468.7,605.3,468.7,605.3z"/>
			<path id="XMLID_31_" class="st0" d="M557.3,604.5c-6.6,0-13,2.8-17.6,7.5c-3.9,4-7.2,7.9-12.6,10c-6.5,2.6-13.9,2.5-20.3-0.2
				c-5.8-2.4-9.6-7.3-14.8-10.6c-6-3.8-13.1-5.8-20.2-6c-4.6-0.1-8.7-0.3-12.7-3c-5-3.4-7.9-9.3-7.6-15.3c0.3-5.9,3.8-10.5,2.8-16.8
				c-2-12.7-16.1-20.1-27.7-14.4c-11.6,5.7-14.4,21.5-5.4,30.8c6.9,7.2,18,5.8,21.7,16.7c2.1,6,0.4,11.7-3,16.7
				c-3.9,5.6-7,11.2-8.2,18c-2.1,11.3,3.1,22.4-6.2,31.7c-4.2,4.2-10,6.5-15.9,6.3c-6.4-0.2-11.9-1.9-18.4-0.3
				c-25.6,6.6-31.3,41.6-9.3,56.1c10.2,6.8,23.9,6.8,34.1,0c9.7-6.4,13.9-16.6,13.9-27.8c0-12.3,9.6-22.7,22.3-22.2
				c5.7,0.2,10.9,2.8,16.7,3.1c6.6,0.3,13.2-1,19.2-3.9c5.8-2.8,10.8-7,14.6-12.1c3.3-4.4,4.9-9.7,8.6-13.8c8.9-10.1,22.6-10.8,34-5
				c11,5.6,24.4,3.1,31.7-7.2c7.1-10,5.4-24-3.7-32.1C569.1,606.7,563.3,604.5,557.3,604.5z"/>
		</g>
		<circle id="XMLID_29_" class="st1" cx="507.9" cy="572.8" r="19.3"/>
		<circle id="XMLID_28_" class="st2" cx="386.7" cy="628.9" r="24.2"/>
		<circle id="XMLID_17_" class="st2" cx="544.5" cy="706.4" r="31.2"/>
		<circle id="XMLID_16_" class="st1" cx="471" cy="744" r="34.1"/>
	</g>
</g>
<g id="XMLID_248_">
	<g id="XMLID_261_">
		<circle id="XMLID_215_" class="st3" cx="277.5" cy="1206.3" r="175.2"/>
	</g>
	<g id="XMLID_258_">
		<circle id="XMLID_119_" class="st4" cx="277.5" cy="1195.9" r="142"/>
	</g>
	<g id="XMLID_255_">
		<circle id="XMLID_77_" class="st5" cx="277.5" cy="1185.3" r="109.2"/>
	</g>
	<g id="XMLID_252_">
		<circle id="XMLID_72_" class="st6" cx="277.5" cy="1174.8" r="76.3"/>
	</g>
	<g id="XMLID_249_">
		<circle id="XMLID_70_" class="st7" cx="277.5" cy="1164.1" r="43.4"/>
	</g>
</g>
<circle id="XMLID_247_" class="st8" cx="277.5" cy="1229.5" r="22"/>
<circle id="XMLID_246_" class="st8" cx="277" cy="1316.1" r="21.6"/>
<circle id="XMLID_245_" class="st8" cx="167.4" cy="1251" r="18.8"/>
<circle id="XMLID_244_" class="st8" cx="163.5" cy="1137.5" r="14.1"/>
<circle id="XMLID_243_" class="st8" cx="387.4" cy="1253.4" r="19.4"/>
<circle id="XMLID_242_" class="st8" cx="323.1" cy="1260.8" r="21.2"/>
<circle id="XMLID_241_" class="st8" cx="371.1" cy="1186.6" r="17.3"/>
<circle id="XMLID_240_" class="st8" cx="342.9" cy="1112.7" r="13"/>
<circle id="XMLID_239_" class="st8" cx="278" cy="1087.3" r="11.2"/>
<circle id="XMLID_238_" class="st8" cx="326.4" cy="1203.8" r="19.9"/>
<circle id="XMLID_237_" class="st8" cx="228.6" cy="1203.8" r="19.2"/>
<circle id="XMLID_236_" class="st8" cx="220.8" cy="1150.8" r="14.5"/>
<circle id="XMLID_235_" class="st8" cx="184.5" cy="1185.5" r="16.4"/>
<circle id="XMLID_234_" class="st8" cx="231.1" cy="1260.2" r="20.6"/>
<circle id="XMLID_233_" class="st8" cx="213.5" cy="1112.7" r="12.3"/>
<circle id="XMLID_232_" class="st8" cx="253.9" cy="1114.3" r="11.6"/>
<circle id="XMLID_231_" class="st8" cx="302.4" cy="1114.9" r="11.9"/>
<circle id="XMLID_230_" class="st8" cx="322.7" cy="1072.7" r="11.6"/>
<circle id="XMLID_229_" class="st8" cx="234.8" cy="1072.7" r="11.3"/>
<circle id="XMLID_228_" class="st8" cx="392.1" cy="1138.7" r="14.5"/>
<circle id="XMLID_227_" class="st8" cx="334.8" cy="1151.7" r="15.4"/>
<g id="XMLID_293_">
	<g id="XMLID_206_">
		<polyline id="XMLID_210_" class="st9" points="279.2,1164.4 278.2,1164.2 278.3,1164.1 278.1,1164.2 278.7,1164.6 279,1164.7 		
			"/>
		<line id="XMLID_209_" class="st10" x1="280.9" y1="1165.2" x2="497.1" y2="1214.7"/>
		<path id="XMLID_208_" class="st9" d="M498,1214.9l1,0.2c0,0,0-0.1,0-0.1L498,1214.9"/>
		<line id="XMLID_207_" class="st11" x1="496.1" y1="1214.3" x2="280.2" y2="1164.7"/>
	</g>
</g>
<g id="XMLID_294_">
	<g id="XMLID_200_">
		<polyline id="XMLID_204_" class="st9" points="277.5,1165.4 277.6,1165.2 277.6,1164.4 277.5,1164.5 277.6,1164.5 277.1,1165.4 		
			"/>
		<line id="XMLID_203_" class="st4" x1="276.3" y1="1167.2" x2="168.9" y2="1389.7"/>
		<path id="XMLID_202_" class="st9" d="M168.5,1390.6l-0.4,0.9c0,0,0,0,0.1,0L168.5,1390.6"/>
		<line id="XMLID_201_" class="st12" x1="169.4" y1="1388.8" x2="277.1" y2="1166.3"/>
	</g>
</g>
<g id="XMLID_295_">
	<g id="XMLID_194_">
		<path id="XMLID_198_" class="st9" d="M426,1046.5l0.8-0.6c0,0-0.1-0.1-0.1-0.1L426,1046.5"/>
		<line id="XMLID_197_" class="st13" x1="424.3" y1="1047.7" x2="279.7" y2="1162.6"/>
		<polyline id="XMLID_196_" class="st9" points="279,1163.2 278.2,1163.9 278.9,1163.7 279.1,1163.5 		"/>
		<line id="XMLID_195_" class="st14" x1="280.7" y1="1162.3" x2="425.2" y2="1047.2"/>
	</g>
</g>
<g id="XMLID_296_">
	<g id="XMLID_188_">
		<polyline id="XMLID_192_" class="st9" points="276.5,1164.8 276.7,1164.7 277.3,1164.3 276.3,1164.5 		"/>
		<line id="XMLID_191_" class="st15" x1="274.4" y1="1164.9" x2="67.8" y2="1211.9"/>
		<path id="XMLID_190_" class="st9" d="M66.9,1212.1l-1,0.2c0,0,0,0.1,0,0.1l1-0.2"/>
		<line id="XMLID_189_" class="st16" x1="68.8" y1="1211.8" x2="275.5" y2="1165"/>
	</g>
</g>
<g id="XMLID_297_">
	<g id="XMLID_182_">
		<polyline id="XMLID_186_" class="st9" points="278.5,1165.2 278.2,1164.6 277.9,1164.4 277.9,1164.8 278.2,1165.4 		"/>
		<line id="XMLID_185_" class="st17" x1="279.1" y1="1167.2" x2="388.3" y2="1394.3"/>
		<path id="XMLID_184_" class="st9" d="M388.7,1395.3l0.4,0.9c0,0,0,0,0.1,0L388.7,1395.3"/>
		<line id="XMLID_183_" class="st17" x1="387.9" y1="1393.4" x2="278.9" y2="1166.1"/>
	</g>
</g>
<g id="XMLID_298_">
	<g id="XMLID_176_">
		<polyline id="XMLID_180_" class="st9" points="276.6,1163.5 276.9,1163.7 277.5,1163.9 277.4,1163.8 276.8,1163.2 		"/>
		<line id="XMLID_179_" class="st18" x1="275.2" y1="1162" x2="135.9" y2="1050.7"/>
		<path id="XMLID_178_" class="st9" d="M135.1,1050.1l-0.8-0.6c0,0-0.1,0.1-0.1,0.1L135.1,1050.1"/>
		<line id="XMLID_177_" class="st19" x1="136.6" y1="1051.4" x2="275.8" y2="1162.9"/>
	</g>
</g>
<g id="XMLID_299_">
	<g id="XMLID_170_">
		<polyline id="XMLID_174_" class="st9" points="277.7,1162.8 277.7,1163.6 277.8,1163.7 278,1163.3 278,1162.8 		"/>
		<line id="XMLID_173_" class="st20" x1="278" y1="1160.8" x2="278.1" y2="992.9"/>
		<path id="XMLID_172_" class="st9" d="M278.1,991.9l0-1c0,0-0.1,0-0.1,0l0,1"/>
		<line id="XMLID_171_" class="st21" x1="278" y1="993.9" x2="277.7" y2="1161.7"/>
	</g>
</g>
<g id="XMLID_300_">
	<g id="XMLID_164_">
		<polyline id="XMLID_168_" class="st9" points="277.9,1165.6 277.9,1164.8 277.9,1164.7 277.6,1165.2 277.6,1165.6 		"/>
		<line id="XMLID_167_" class="st22" x1="277.6" y1="1167.6" x2="276" y2="1422.1"/>
		<path id="XMLID_166_" class="st9" d="M276,1423.1l0,1c0,0,0,0,0.1,0L276,1423.1"/>
		<line id="XMLID_165_" class="st23" x1="276.1" y1="1421.1" x2="277.9" y2="1166.6"/>
	</g>
</g>
<g id="XMLID_301_">
	<g id="XMLID_158_">
		<polyline id="XMLID_162_" class="st9" points="278.1,1163 278,1163.3 278,1164 278.2,1163.9 278.1,1163.9 278.5,1163 		"/>
		<line id="XMLID_161_" class="st24" x1="279.4" y1="1161.2" x2="355.5" y2="1005.6"/>
		<path id="XMLID_160_" class="st9" d="M355.9,1004.7l0.4-0.9c0,0-0.1,0-0.1,0l-0.4,0.9"/>
		<line id="XMLID_159_" class="st25" x1="354.9" y1="1006.4" x2="278.6" y2="1162.1"/>
	</g>
</g>
<g id="XMLID_302_">
	<g id="XMLID_152_">
		<polyline id="XMLID_156_" class="st9" points="279,1164.9 278.7,1164.6 278.1,1164.5 278.2,1164.6 278.9,1165.2 		"/>
		<line id="XMLID_155_" class="st26" x1="280.4" y1="1166.4" x2="467.1" y2="1317.2"/>
		<path id="XMLID_154_" class="st9" d="M467.8,1317.8l0.8,0.6c0,0,0,0,0-0.1L467.8,1317.8"/>
		<line id="XMLID_153_" class="st27" x1="466.3" y1="1316.5" x2="279.8" y2="1165.5"/>
	</g>
</g>
<g id="XMLID_303_">
	<g id="XMLID_146_">
		<path id="XMLID_150_" class="st9" d="M92.5,1309.8l-0.8,0.6c0,0,0,0.1,0,0.1L92.5,1309.8"/>
		<line id="XMLID_149_" class="st28" x1="94.2" y1="1308.6" x2="275.9" y2="1165.8"/>
		<polyline id="XMLID_148_" class="st9" points="276.7,1165.2 277.5,1164.5 276.7,1164.7 276.5,1164.9 		"/>
		<line id="XMLID_147_" class="st29" x1="275" y1="1166.1" x2="93.3" y2="1309.1"/>
	</g>
</g>
<g id="XMLID_304_">
	<g id="XMLID_138_">
		<polyline id="XMLID_144_" class="st9" points="277.2,1163.2 277.4,1163.8 277.7,1164 277.7,1163.6 277.4,1163 		"/>
		<line id="XMLID_142_" class="st30" x1="276.6" y1="1161.2" x2="203.8" y2="1007.7"/>
		<path id="XMLID_140_" class="st9" d="M203.4,1006.8l-0.4-0.9c0,0-0.1,0-0.1,0.1l0.4,0.9"/>
		<line id="XMLID_139_" class="st30" x1="204.1" y1="1008.7" x2="276.7" y2="1162.3"/>
	</g>
</g>
<g id="XMLID_305_">
	<g id="XMLID_123_">
		<polyline id="XMLID_136_" class="st9" points="276.5,1163.9 277.4,1164.2 277.3,1164.3 277.5,1164.2 276.9,1163.7 276.7,1163.7 		
			"/>
		<line id="XMLID_135_" class="st31" x1="274.8" y1="1163.2" x2="86.8" y2="1119.1"/>
		<path id="XMLID_125_" class="st9" d="M85.8,1118.9l-1-0.2c0,0,0,0.1-0.1,0.1l1,0.2"/>
		<line id="XMLID_124_" class="st32" x1="87.8" y1="1119.5" x2="275.5" y2="1163.7"/>
	</g>
</g>
<g id="XMLID_306_">
	<g id="XMLID_86_">
		<polyline id="XMLID_211_" class="st9" points="279.1,1163.6 278.9,1163.7 278.3,1164.1 279.3,1163.9 		"/>
		<line id="XMLID_117_" class="st33" x1="281.2" y1="1163.5" x2="478.5" y2="1119.8"/>
		<path id="XMLID_116_" class="st9" d="M479.4,1119.5l1-0.2c0,0,0-0.1,0-0.1l-1,0.2"/>
		<line id="XMLID_87_" class="st34" x1="477.4" y1="1119.9" x2="280.1" y2="1163.4"/>
	</g>
</g>
<g id="XMLID_307_">
	<polygon id="XMLID_67_" class="st9" points="278.6,1164.6 277.9,1164.7 277.7,1164.8 277.8,1164.1 277.5,1164.5 277.4,1164.4 
		277.4,1164.7 277.2,1164.5 277.2,1164.6 276.6,1164.4 277.2,1165 277,1165 276.4,1165.4 277.1,1165.3 277.3,1165.2 277.2,1165.9 
		277.5,1165.4 277.6,1165.6 277.6,1165.2 277.8,1165.5 277.8,1165.3 278.3,1165.5 277.8,1165 278,1165 	"/>
</g>
<line id="XMLID_15_" class="st35" x1="277.2" y1="1164.9" x2="579.6" y2="1164.9"/>
<line id="XMLID_113_" class="st35" x1="277.2" y1="1120.8" x2="579.6" y2="1120.8"/>
<line id="XMLID_114_" class="st35" x1="277.2" y1="1098.4" x2="579.6" y2="1098.4"/>
<line id="XMLID_115_" class="st35" x1="277.2" y1="1076.1" x2="579.6" y2="1076.1"/>
<line id="XMLID_264_" class="st35" x1="277.2" y1="1053.9" x2="579.6" y2="1053.9"/>
<line id="XMLID_265_" class="st35" x1="277.2" y1="1031" x2="579.6" y2="1031"/>
<line id="XMLID_105_" class="st35" x1="277.2" y1="1207.5" x2="579.6" y2="1207.5"/>
<line id="XMLID_106_" class="st35" x1="277.2" y1="1251" x2="579.6" y2="1251"/>
<line id="XMLID_107_" class="st35" x1="280.7" y1="1294.9" x2="579.6" y2="1294.9"/>
<line id="XMLID_108_" class="st35" x1="280.7" y1="1337.9" x2="579.6" y2="1337.9"/>
<line id="XMLID_109_" class="st35" x1="280.7" y1="1381.5" x2="579.6" y2="1381.5"/>
<text id="XMLID_6_" transform="matrix(1 0 0 1 519.7718 1189.624)" class="st8 st36 st37">1 radius</text>
<text id="XMLID_266_" transform="matrix(1 0 0 1 508.3946 1114.2898)" class="st8 st36 st37">1/2 radius</text>
<line id="XMLID_267_" class="st38" x1="590" y1="1020.1" x2="590" y2="1396.1"/>
<g id="XMLID_40_">
	<text id="XMLID_223_" transform="matrix(1 0 0 1 95.9742 983.6426)" class="st36 st37">icon foundations</text>
</g>
<g id="XMLID_32_">
	<text id="XMLID_222_" transform="matrix(1 0 0 1 95.9742 228.3563)" class="st36 st37">variant 1</text>
</g>
<g id="XMLID_33_">
	<text id="XMLID_221_" transform="matrix(1 0 0 1 95.9742 661.2891)"><tspan x="0" y="0" class="st36 st37">variant 2</tspan><tspan x="0" y="16.4" class="st36 st37">with tagline</tspan></text>
</g>
<g id="XMLID_51_">
	<g id="XMLID_37_">
		<text id="XMLID_217_" transform="matrix(1 0 0 1 662.7394 983.6426)" class="st36 st37">color pallete option</text>
	</g>
	<g id="XMLID_50_">
		<rect id="XMLID_8_" x="661.7" y="995.7" class="st0" width="166.2" height="60.9"/>
		<rect id="XMLID_9_" x="827.4" y="995.7" class="st1" width="166.2" height="60.9"/>
		<rect id="XMLID_10_" x="993.5" y="995.7" class="st2" width="166.2" height="60.9"/>
		<rect id="XMLID_38_" x="1159.8" y="995.7" class="st39" width="166.2" height="60.9"/>
		<g id="XMLID_42_">
			<text id="XMLID_143_" transform="matrix(1 0 0 1 710.9916 1073.0383)" class="st8 st36 st37">#333333</text>
		</g>
		<g id="XMLID_43_">
			<text id="XMLID_122_" transform="matrix(1 0 0 1 889.6583 1073.0383)" class="st8 st36 st37">#0db14b</text>
		</g>
		<g id="XMLID_44_">
			<text id="XMLID_118_" transform="matrix(1 0 0 1 1052.3248 1073.0383)" class="st8 st36 st37">#cccccc</text>
		</g>
		<g id="XMLID_46_">
			<text id="XMLID_104_" transform="matrix(1 0 0 1 1216.9916 1073.0383)" class="st8 st36 st37">#eeeeee</text>
		</g>
	</g>
</g>
<g id="XMLID_57_">
	<g id="XMLID_47_">
		<text id="XMLID_212_" transform="matrix(1 0 0 1 662.7394 1135.3947)" class="st36 st37">logo typeface</text>
	</g>
	<text id="XMLID_7_" transform="matrix(1 0 0 1 660.7391 1173.7881)" class="st8 st40 st41">Proxima Nova</text>
</g>
<g id="XMLID_59_">
	<g id="XMLID_63_">
		<text id="XMLID_213_" transform="matrix(1 0 0 1 662.7394 1231.8104)" class="st36 st37">similar websafe typeface</text>
	</g>
	<text id="XMLID_62_" transform="matrix(1 0 0 1 660.7391 1270.2039)" class="st8 st40 st41">Montserrat (Google Fonts)</text>
</g>
</svg>
